<svg width="22" height="28" viewBox="0 0 22 28" fill="none" xmlns="http://www.w3.org/2000/svg">
<path fill-rule="evenodd" clip-rule="evenodd" d="M0 4C0 1.79086 1.79086 0 4 0H18C20.2091 0 22 1.79086 22 4V24C22 26.2091 20.2091 28 18 28H4C1.79086 28 0 26.2091 0 24V4ZM17 3H5C3.89543 3 3 3.89543 3 5C3 6.10457 3.89543 7 5 7H17C18.1046 7 19 6.10457 19 5C19 3.89543 18.1046 3 17 3ZM17 9H5C3.89543 9 3 9.89543 3 11C3 12.1046 3.89543 13 5 13H17C18.1046 13 19 12.1046 19 11C19 9.89543 18.1046 9 17 9ZM17 15H5C3.89543 15 3 15.8954 3 17C3 18.1046 3.89543 19 5 19H17C18.1046 19 19 18.1046 19 17C19 15.8954 18.1046 15 17 15ZM17 21H5C3.89543 21 3 21.8954 3 23C3 24.1046 3.89543 25 5 25H17C18.1046 25 19 24.1046 19 23C19 21.8954 18.1046 21 17 21Z" fill="#7B7B8E"/>
</svg>
